<svg xmlns="http://www.w3.org/2000/svg" width="24" height="24" viewBox="0 0 24 24" role="img" aria-label="Google">
  <path fill="#4285F4" d="M21.6 12.23c0-.78-.07-1.53-.2-2.25H12v4.26h5.38a4.6 4.6 0 0 1-2 3.02v2.5h3.24c1.9-1.75 2.98-4.33 2.98-7.53z" />
  <path fill="#34A853" d="M12 22c2.7 0 4.96-.9 6.61-2.43l-3.24-2.5c-.9.6-2.05.96-3.37.96-2.59 0-4.79-1.75-5.58-4.1H3.07v2.57A10 10 0 0 0 12 22z" />
  <path fill="#FBBC05" d="M6.42 13.93A6.03 6.03 0 0 1 6.42 10.07V7.5H3.07a10 10 0 0 0 0 12.86l3.35-2.43z" />
  <path fill="#EA4335" d="M12 6.04c1.46 0 2.78.5 3.82 1.48l2.86-2.86A9.96 9.96 0 0 0 12 2a10 10 0 0 0-8.93 5.5l3.35 2.57c.79-2.35 2.99-4.1 5.58-4.1z" />
</svg>
